<?xml version="1.0" encoding="iso-8859-1"?>
<!-- Generator: Adobe Illustrator 18.0.0, SVG Export Plug-In . SVG Version: 6.00 Build 0)  -->
<!DOCTYPE svg PUBLIC "-//W3C//DTD SVG 1.1//EN" "http://www.w3.org/Graphics/SVG/1.1/DTD/svg11.dtd">
<svg version="1.1" id="&#x56FE;&#x5C42;_1" xmlns="http://www.w3.org/2000/svg" xmlns:xlink="http://www.w3.org/1999/xlink" x="0px"
	 y="0px" viewBox="0 0 1024 1024" style="enable-background:new 0 0 1024 1024;" xml:space="preserve">
<g>
	<path style="fill:#06CF86;" d="M425.098,722.609c0,24.92,20.178,45.103,45.018,45.103H917.42c24.911,0,45.083-20.189,45.083-45.103
		c0-24.854-20.178-45.103-45.083-45.103l-447.304,0C445.276,677.506,425.098,697.755,425.098,722.609z"/>
	<path style="fill:#06CF86;" d="M932.733,870.681H111.39c-24.583,0-44.571,19.993-44.571,44.656
		c0,24.604,19.988,44.663,44.571,44.663H917.86c37.462,0,64.147-46.309,26.316-84.508
		C941.572,872.861,936.436,870.681,932.733,870.681z"/>
	<path style="fill:#06CF86;" d="M95.571,767.041l157.741-42.266c18.579-4.978,24.801-28.202,11.201-41.802L149.038,567.499
		c-13.601-13.601-36.824-7.378-41.802,11.201L64.97,736.44C59.991,755.019,76.992,772.02,95.571,767.041z"/>
	<path style="fill:#06CF86;" d="M308.01,649.707c7,7,18.455,7,25.456,0l265.043-265.043c7.001-7,7.001-18.456,0-25.456
		L474.03,234.728c-7-7-18.456-7-25.456,0L183.53,499.772c-7,7-7,18.456,0,25.456L308.01,649.707z"/>
	<path style="fill:#06CF86;" d="M645.128,312.589c7.001,7,18.456,7,25.456,0l93.408-93.408c7-7,7-18.456,0-25.456L639.513,69.246
		c-7.001-7-18.456-7-25.456,0l-93.408,93.408c-7,7-7,18.456,0,25.456L645.128,312.589z"/>
</g>
</svg>
