<?xml version="1.0" encoding="iso-8859-1"?>
<!-- Generator: Adobe Illustrator 18.0.0, SVG Export Plug-In . SVG Version: 6.00 Build 0)  -->
<!DOCTYPE svg PUBLIC "-//W3C//DTD SVG 1.1//EN" "http://www.w3.org/Graphics/SVG/1.1/DTD/svg11.dtd">
<svg version="1.1" id="&#x56FE;&#x5C42;_1" xmlns="http://www.w3.org/2000/svg" xmlns:xlink="http://www.w3.org/1999/xlink" x="0px"
	 y="0px" viewBox="0 0 1024 1024" style="enable-background:new 0 0 1024 1024;" xml:space="preserve">
<g>
	<path style="fill-rule:evenodd;clip-rule:evenodd;fill:#86c840;" d="M822.057,191.151c16.802-28.032,17.617-62.031,2.247-90.923
		c-15.415-28.891-43.535-46.133-75.268-46.133H204.51c-31.71,0-59.853,17.242-75.245,46.133
		c-15.421,28.567-14.583,63.159,2.202,90.946c0.683,1.101,1.453,2.202,2.268,3.193l178.896,220.472
		c11.165,13.785,17.33,31.314,17.33,49.348v299.811c0,15.261,11.892,27.637,26.535,27.637c14.644,0,26.513-12.376,26.513-27.637
		V464.186c0.056-30.914-10.482-60.914-29.86-84.999L175.662,160.432c-5.626-10.416-5.626-22.966,0-33.383
		c5.533-10.843,16.674-17.673,28.848-17.682h544.527c12.177,0,22.968,6.606,28.848,17.682c5.659,10.57,5.615,22.946,0,33.383
		L600.397,379.164c-19.383,24.093-29.922,54.101-29.86,85.022v458.251c0,15.282,11.891,27.658,26.535,27.658
		c14.644,0,26.513-12.376,26.513-27.636V464.207c0-18.056,6.165-35.585,17.351-49.37l178.896-220.472
		c0.815-1.013,1.564-2.092,2.247-3.215H822.057L822.057,191.151z M688.612,462.909c0,15.259,11.869,27.635,26.513,27.635h188.079
		c14.666,0,26.535-12.376,26.535-27.635c0-15.239-11.891-27.614-26.535-27.614H715.147c-14.666,0-26.556,12.375-26.556,27.614
		H688.612L688.612,462.909z M903.204,739.444H715.147c-14.666,0-26.556,12.376-26.556,27.637s11.89,27.635,26.535,27.635h188.079
		c14.666,0,26.535-12.375,26.535-27.635S917.848,739.444,903.204,739.444L903.204,739.444z M903.204,587.37H715.147
		c-14.666,0-26.556,12.375-26.556,27.635s11.89,27.614,26.535,27.614h188.079c14.666,0,26.535-12.353,26.535-27.614
		S917.848,587.37,903.204,587.37L903.204,587.37z"/>
</g>
</svg>
