<?xml version="1.0" encoding="iso-8859-1"?>
<!-- Generator: Adobe Illustrator 18.0.0, SVG Export Plug-In . SVG Version: 6.00 Build 0)  -->
<!DOCTYPE svg PUBLIC "-//W3C//DTD SVG 1.1//EN" "http://www.w3.org/Graphics/SVG/1.1/DTD/svg11.dtd">
<svg version="1.1" id="&#x56FE;&#x5C42;_1" xmlns="http://www.w3.org/2000/svg" xmlns:xlink="http://www.w3.org/1999/xlink" x="0px"
	 y="0px" viewBox="0 0 1024 1024" style="enable-background:new 0 0 1024 1024;" xml:space="preserve">
<circle style="opacity:0.2;fill:#1FDA9A;" cx="512.764" cy="512" r="366"/>
<path style="fill:#1FDA9A;" d="M177.229,339.407c5.731-11.147,13.26-25.315,18.837-34.057
	c68.332-107.18,188.261-178.265,324.795-178.265c212.58,0,384.912,172.332,384.912,384.918
	c0,212.58-172.332,384.912-384.912,384.912c-138.221,0-259.425-72.854-327.308-182.258c-9.267-14.939-12.406-22.336-12.406-22.336
	c-6.943-13.572-23.72-19.752-37.774-13.979c-14.15,5.815-20.032,21.38-13.348,34.862c0,0,4.442,10.099,14.293,26.363
	c77.088,127.275,216.882,212.333,376.544,212.333c242.95,0,439.903-196.95,439.903-439.899
	c0-242.955-196.953-439.904-439.903-439.904c-157.406,0-295.5,82.672-373.238,206.964c-3.931,6.288-8.768,15.09-13.386,23.863
	l-14.856-93.793c-2.353-14.86-16.315-24.996-31.417-22.604c-14.998,2.375-25.205,16.601-22.865,31.376l21.526,135.909
	c4.745,29.966,32.673,50.443,62.854,45.665l135.909-21.526c14.952-2.37,25.162-16.341,22.772-31.443
	c-2.375-14.998-16.546-25.218-31.204-22.894L177.229,339.407z M520.861,264.429c0-15.115-12.205-27.365-27.496-27.365
	c-15.183,0-27.492,12.527-27.492,27.558v247.145c0,30.495,24.798,55.222,55.222,55.222h247.142
	c15.224,0,27.563-12.205,27.563-27.496c0-15.183-12.527-27.491-27.37-27.491H548.226c-15.111,0-27.365-12.531-27.365-27.37V264.429z
	 M520.861,264.429"/>
</svg>
