<?xml version="1.0" encoding="iso-8859-1"?>
<!-- Generator: Adobe Illustrator 18.0.0, SVG Export Plug-In . SVG Version: 6.00 Build 0)  -->
<!DOCTYPE svg PUBLIC "-//W3C//DTD SVG 1.1//EN" "http://www.w3.org/Graphics/SVG/1.1/DTD/svg11.dtd">
<svg version="1.1" id="&#x56FE;&#x5C42;_1" xmlns="http://www.w3.org/2000/svg" xmlns:xlink="http://www.w3.org/1999/xlink" x="0px"
	 y="0px" viewBox="0 0 1024 1024" style="enable-background:new 0 0 1024 1024;" xml:space="preserve">
<g>
	<path style="fill:#999999;" d="M769.667,904.001h-70.999v28.002c0,15.461-12.535,27.997-28.001,27.997
		c-15.462,0-27.998-12.535-27.998-27.997v-28.002H381.335v28.002c0,15.461-12.535,27.997-28.001,27.997
		c-15.462,0-27.998-12.535-27.998-27.997v-28.002h-71.003c-51.543,0-93.332-41.789-93.332-93.332V269.334
		c0-51.547,41.789-93.336,93.332-93.336h89.67v-55.999c0-30.928,25.07-55.999,55.999-55.999h224.001
		c30.928,0,55.999,25.071,55.999,55.999v55.999h89.665c24.755,0,48.493,9.836,65.997,27.34
		c17.504,17.503,27.335,41.242,27.335,65.996v541.335C862.999,862.212,821.215,904.001,769.667,904.001L769.667,904.001z
		 M624.004,138.666c0-10.31-8.357-18.667-18.667-18.667H418.668c-4.951,0-9.698,1.97-13.202,5.469
		c-3.499,3.499-5.464,8.246-5.464,13.198v37.332h224.001V138.666z M807,269.334c0-9.903-3.931-19.397-10.933-26.399
		c-7.002-7.003-16.496-10.933-26.4-10.933H254.333c-9.9,0-19.397,3.93-26.395,10.933C220.935,249.938,217,259.431,217,269.334
		v541.335c0,20.619,16.714,37.333,37.333,37.333h515.335c20.62,0,37.333-16.714,37.333-37.333V269.334z M614.667,754.666
		c-15.461,0-28.001-12.535-28.001-27.998V353.336c0-15.466,12.54-28.001,28.001-28.001c15.462,0,28.002,12.535,28.002,28.001
		v373.332C642.669,742.13,630.13,754.666,614.667,754.666L614.667,754.666z M409.333,754.666c-15.462,0-27.998-12.535-27.998-27.998
		V353.336c0-15.466,12.536-28.001,27.998-28.001c15.467,0,28.002,12.535,28.002,28.001v373.332
		C437.335,742.13,424.8,754.666,409.333,754.666L409.333,754.666z M409.333,754.666"/>
</g>
</svg>
