<?xml version="1.0" encoding="iso-8859-1"?>
<!-- Generator: Adobe Illustrator 18.0.0, SVG Export Plug-In . SVG Version: 6.00 Build 0)  -->
<!DOCTYPE svg PUBLIC "-//W3C//DTD SVG 1.1//EN" "http://www.w3.org/Graphics/SVG/1.1/DTD/svg11.dtd">
<svg version="1.1" id="&#x56FE;&#x5C42;_1" xmlns="http://www.w3.org/2000/svg" xmlns:xlink="http://www.w3.org/1999/xlink" x="0px"
	 y="0px" viewBox="0 0 1024 1024" style="enable-background:new 0 0 1024 1024;" xml:space="preserve">
<path style="fill:#87c74a;" d="M512,64C264.576,64,64,264.577,64,512s200.576,448,448,448s448-200.576,448-448S759.424,64,512,64z
	 M718.127,334.583c-7.407,62.515-59.033,110.732-123.739,110.732h-40.836v-0.024c-0.167,0.007-0.327,0.05-0.499,0.05
	c-2.802,0.001-5.49-1.111-7.472-3.093c-1.982-1.982-3.094-4.67-3.093-7.472c-0.001-2.802,1.111-5.491,3.093-7.473
	c1.982-1.981,4.669-3.095,7.472-3.094c0.172,0,0.332,0.043,0.499,0.05v-0.055h44.721c37.641,0.437,101.17-46.378,101.17-103.756
	H624.11c-45.247,0.714-101.765,37.33-101.167,98.984l-0.376,282.259h83.046c6.345,0,11.49,5.147,11.49,11.49
	c0,6.344-5.144,11.49-11.49,11.49H418.388c-6.346,0-11.49-5.146-11.49-11.49c0-6.343,5.144-11.49,11.49-11.49h80.667V505.488
	c0-57.958-47.654-96.864-98.978-103.754h-77.865c2.326,63.006,66.032,106.578,103.759,106.141h42.421v0.151
	c5.687,0.182,10.204,4.843,10.207,10.533c0,5.835-4.73,10.565-10.564,10.565c-0.457,0-0.884-0.084-1.321-0.134h-39.245
	c-53.918-0.643-116.57-45.843-123.983-108.344l-2.388-42.418h95.842c48.993,1.439,84.611,28.931,104.565,57.038
	c0.057-16.931,0.088-23.974,0.38-29.985c7.209-63.066,57.949-105.955,122.979-105.955h98.039L718.127,334.583z"/>
</svg>
