<?xml version="1.0" encoding="iso-8859-1"?>
<!-- Generator: Adobe Illustrator 18.0.0, SVG Export Plug-In . SVG Version: 6.00 Build 0)  -->
<!DOCTYPE svg PUBLIC "-//W3C//DTD SVG 1.1//EN" "http://www.w3.org/Graphics/SVG/1.1/DTD/svg11.dtd">
<svg version="1.1" id="&#x56FE;&#x5C42;_1" xmlns="http://www.w3.org/2000/svg" xmlns:xlink="http://www.w3.org/1999/xlink" x="0px"
	 y="0px" viewBox="0 0 1024 1024" style="enable-background:new 0 0 1024 1024;" xml:space="preserve">
<path style="fill:#ffffff;" d="M748.085,104.539L513.299,339.325L280.153,106.179c-48.591-48.591-127.367-48.591-175.954-0.004
	c-48.591,48.591-48.591,127.367,0,175.958l233.146,233.146L102.559,750.065c-48.587,48.587-48.591,127.367,0.004,175.954
	c48.591,48.591,127.367,48.591,175.958,0l234.782-234.782l236.418,236.418c48.591,48.591,127.367,48.591,175.958,0
	c48.587-48.587,48.587-127.363-0.004-175.954L689.257,515.283l234.786-234.786c48.59-48.59,48.591-127.367,0-175.958
	C875.452,55.949,796.675,55.949,748.085,104.539z"/>
</svg>
