<?xml version="1.0" encoding="iso-8859-1"?>
<!-- Generator: Adobe Illustrator 18.0.0, SVG Export Plug-In . SVG Version: 6.00 Build 0)  -->
<!DOCTYPE svg PUBLIC "-//W3C//DTD SVG 1.1//EN" "http://www.w3.org/Graphics/SVG/1.1/DTD/svg11.dtd">
<svg version="1.1" id="&#x56FE;&#x5C42;_1" xmlns="http://www.w3.org/2000/svg" xmlns:xlink="http://www.w3.org/1999/xlink" x="0px"
	 y="0px" viewBox="0 0 1024 1024" style="enable-background:new 0 0 1024 1024;" xml:space="preserve">
<g>
	<circle style="fill:#DCDDDD;" cx="510.606" cy="512.245" r="448"/>
	<g style="opacity:0.59;">
		<path style="fill:#FA6771;" d="M779.775,312.327c-23.961,0-42.959,11.981-57.508,31.663
			c-14.718-19.683-33.546-31.663-57.508-31.663c-43.302,0-78.561,38.168-78.561,85.235c0,28.069,12.666,47.752,22.765,63.499
			c6.868,10.804,15.152,20.685,23.874,30.03c9.137,9.789,18.869,19.017,28.903,27.879c8.834,7.803,17.919,15.321,27.185,22.604
			c6.159,4.841,12.401,9.576,18.721,14.205c1.21,0.886,2.431,1.757,3.635,2.651c5.832,4.331,13.637,4.889,19.925,1.182
			c2.708-1.597,5.24-3.759,7.772-5.634c7.179-5.317,14.257-10.772,21.226-16.362c9.79-7.852,19.372-15.97,28.644-24.429
			c10.117-9.23,19.898-18.866,28.939-29.16c6.367-7.249,12.397-14.84,17.612-22.966c10.098-15.747,22.764-35.43,22.764-63.499
			C858.164,350.667,822.907,312.327,779.775,312.327z M779.775,312.327"/>
	</g>
	<g style="opacity:0.3;">
		<path style="fill:#FA6771;" d="M562.478,189.045c-12.671,0-22.717,6.335-30.41,16.744c-7.783-10.408-17.739-16.744-30.41-16.744
			c-22.898,0-41.543,20.184-41.543,45.073c0,14.843,6.698,25.251,12.038,33.578c3.632,5.713,8.012,10.938,12.625,15.88
			c4.832,5.177,9.978,10.056,15.284,14.743c4.672,4.126,9.476,8.102,14.376,11.953c3.257,2.56,6.558,5.064,9.9,7.512
			c0.64,0.468,1.286,0.929,1.922,1.402c3.084,2.29,7.211,2.585,10.536,0.625c1.432-0.844,2.771-1.988,4.11-2.979
			c3.796-2.812,7.539-5.696,11.224-8.652c5.177-4.152,10.244-8.445,15.147-12.918c5.35-4.881,10.522-9.976,15.303-15.42
			c3.367-3.833,6.555-7.847,9.313-12.145c5.34-8.327,12.037-18.735,12.037-33.578C603.931,209.319,585.287,189.045,562.478,189.045z
			 M562.478,189.045"/>
	</g>
	<g>
		<path style="fill:#FA6771;" d="M552.61,405.094c-45.438,0-81.463,22.719-109.052,60.043
			c-27.911-37.324-63.614-60.043-109.052-60.043c-82.114,0-148.974,72.379-148.974,161.632c0,53.228,24.018,90.552,43.169,120.413
			c13.024,20.489,28.732,39.226,45.273,56.946c17.327,18.563,35.781,36.062,54.809,52.867c16.752,14.796,33.98,29.053,51.551,42.864
			c11.679,9.18,23.516,18.159,35.501,26.937c2.294,1.68,4.61,3.331,6.893,5.026c11.059,8.212,25.861,9.271,37.784,2.241
			c5.136-3.028,9.937-7.128,14.739-10.684c13.614-10.083,27.035-20.427,40.251-31.027c18.565-14.89,36.736-30.284,54.318-46.325
			c19.185-17.503,37.732-35.775,54.877-55.295c12.073-13.746,23.508-28.141,33.398-43.551
			c19.148-29.861,43.167-67.185,43.167-120.413C701.259,477.797,634.402,405.094,552.61,405.094z M552.61,405.094"/>
	</g>
</g>
</svg>
