<?xml version="1.0" encoding="iso-8859-1"?>
<!-- Generator: Adobe Illustrator 18.0.0, SVG Export Plug-In . SVG Version: 6.00 Build 0)  -->
<!DOCTYPE svg PUBLIC "-//W3C//DTD SVG 1.1//EN" "http://www.w3.org/Graphics/SVG/1.1/DTD/svg11.dtd">
<svg version="1.1" id="&#x56FE;&#x5C42;_1" xmlns="http://www.w3.org/2000/svg" xmlns:xlink="http://www.w3.org/1999/xlink" x="0px"
	 y="0px" viewBox="0 0 1024 1024" style="enable-background:new 0 0 1024 1024;" xml:space="preserve">
<g>
	<g>
		<path style="fill:#FFFFFF;" d="M511.979,62.06c-247.44,0-448.003,200.562-448.003,448.003
			c0,247.435,200.562,447.997,448.003,447.997c247.435,0,447.997-200.562,447.997-447.997
			C959.976,262.623,759.414,62.06,511.979,62.06L511.979,62.06z M696.776,624.471c19.349,19.346,19.349,51.043,0,70.389
			c-19.346,19.35-51.043,19.35-70.39,0L511.979,580.451L397.57,694.86c-19.35,19.35-51.048,19.35-70.393,0
			c-19.351-19.346-19.351-51.043,0-70.389l114.407-114.407L327.178,395.655c-19.351-19.35-19.351-51.048,0-70.393
			c19.345-19.351,51.043-19.351,70.393,0l114.409,114.408l114.407-114.408c19.346-19.351,51.043-19.351,70.39,0
			c19.349,19.345,19.349,51.043,0,70.393L582.367,510.063L696.776,624.471z M696.776,624.471"/>
	</g>
</g>
</svg>
