<?xml version="1.0" encoding="iso-8859-1"?>
<!-- Generator: Adobe Illustrator 18.0.0, SVG Export Plug-In . SVG Version: 6.00 Build 0)  -->
<!DOCTYPE svg PUBLIC "-//W3C//DTD SVG 1.1//EN" "http://www.w3.org/Graphics/SVG/1.1/DTD/svg11.dtd">
<svg version="1.1" id="&#x56FE;&#x5C42;_1" xmlns="http://www.w3.org/2000/svg" xmlns:xlink="http://www.w3.org/1999/xlink" x="0px"
	 y="0px" viewBox="0 0 1024 1024" style="enable-background:new 0 0 1024 1024;" xml:space="preserve">
<g>
	<g>
		<path style="fill:#999999;" d="M877.472,66.002H162.885c-49.131,0-89.326,40.195-89.326,89.326v714.587
			c0,49.127,40.194,89.321,89.326,89.321h428.752c49.126,0,89.321-40.194,89.321-89.321V682.332h53.594
			c49.131,0,89.326-40.194,89.326-89.321V387.565h53.594c49.127,0,89.321-40.195,89.321-89.321V155.328
			C966.794,106.197,926.599,66.002,877.472,66.002L877.472,66.002z M636.3,869.915c0,25.011-19.653,44.658-44.663,44.658H162.885
			c-25.015,0-44.663-19.647-44.663-44.658V682.332H636.3V869.915z M779.215,593.011c0,25.011-19.652,44.663-44.663,44.663h-616.33
			V387.565h660.993V593.011z M922.131,298.243c0,25.011-19.647,44.663-44.659,44.663h-759.25V155.328
			c0-25.015,19.647-44.663,44.663-44.663h714.587c25.011,0,44.659,19.648,44.659,44.663V298.243z M922.131,298.243"/>
	</g>
</g>
</svg>
