<?xml version="1.0" encoding="iso-8859-1"?>
<!-- Generator: Adobe Illustrator 18.0.0, SVG Export Plug-In . SVG Version: 6.00 Build 0)  -->
<!DOCTYPE svg PUBLIC "-//W3C//DTD SVG 1.1//EN" "http://www.w3.org/Graphics/SVG/1.1/DTD/svg11.dtd">
<svg version="1.1" id="&#x56FE;&#x5C42;_1" xmlns="http://www.w3.org/2000/svg" xmlns:xlink="http://www.w3.org/1999/xlink" x="0px"
	 y="0px" viewBox="0 0 1024 1024" style="enable-background:new 0 0 1024 1024;" xml:space="preserve">
<g>
	<path style="fill:#999999;" d="M169.158,94.542c-35.157,0-63.658,28.502-63.658,63.658c0,35.157,28.501,63.653,63.658,63.653
		s63.653-28.496,63.653-63.653C232.811,123.044,204.315,94.542,169.158,94.542z"/>
	<path style="fill:#999999;" d="M862.992,101.113H398.289c-30.528,0-55.508,24.98-55.508,55.508v3.158
		c0,30.528,24.98,55.504,55.508,55.504h464.702c30.528,0,55.508-24.975,55.508-55.504v-3.158
		C918.5,126.093,893.52,101.113,862.992,101.113z"/>
	<path style="fill:#999999;" d="M169.158,449.049c-35.157,0-63.658,28.502-63.658,63.658c0,35.157,28.501,63.653,63.658,63.653
		s63.653-28.496,63.653-63.653C232.811,477.551,204.315,449.049,169.158,449.049z"/>
	<path style="fill:#999999;" d="M862.992,455.62H398.289c-30.528,0-55.508,24.98-55.508,55.509v3.158
		c0,30.528,24.98,55.504,55.508,55.504h464.702c30.528,0,55.508-24.975,55.508-55.504v-3.158
		C918.5,480.6,893.52,455.62,862.992,455.62z"/>
	<path style="fill:#999999;" d="M169.158,802.147c-35.157,0-63.658,28.502-63.658,63.658c0,35.157,28.501,63.653,63.658,63.653
		s63.653-28.496,63.653-63.653C232.811,830.65,204.315,802.147,169.158,802.147z"/>
	<path style="fill:#999999;" d="M862.992,808.719H398.289c-30.528,0-55.508,24.98-55.508,55.508v3.158
		c0,30.528,24.98,55.504,55.508,55.504h464.702c30.528,0,55.508-24.975,55.508-55.504v-3.158
		C918.5,833.699,893.52,808.719,862.992,808.719z"/>
</g>
</svg>
