<?xml version="1.0" encoding="iso-8859-1"?>
<!-- Generator: Adobe Illustrator 18.0.0, SVG Export Plug-In . SVG Version: 6.00 Build 0)  -->
<!DOCTYPE svg PUBLIC "-//W3C//DTD SVG 1.1//EN" "http://www.w3.org/Graphics/SVG/1.1/DTD/svg11.dtd">
<svg version="1.1" id="&#x56FE;&#x5C42;_1" xmlns="http://www.w3.org/2000/svg" xmlns:xlink="http://www.w3.org/1999/xlink" x="0px"
	 y="0px" viewBox="0 0 1024 1024" style="enable-background:new 0 0 1024 1024;" xml:space="preserve">
<g>
	<path style="fill:#ffffff;" d="M705.116,115.658c-78.758,0-141.201,39.379-189.021,104.073
		c-48.378-64.694-110.263-104.073-189.021-104.073c-142.329,0-258.22,125.455-258.22,280.159c0,92.26,41.631,156.954,74.826,208.713
		c22.575,35.513,49.802,67.99,78.472,98.705c30.033,32.176,62.02,62.506,95,91.636c29.037,25.646,58.897,50.358,89.354,74.297
		c20.244,15.912,40.76,31.476,61.534,46.69c3.976,2.912,7.991,5.774,11.948,8.712c19.168,14.235,44.825,16.069,65.492,3.885
		c8.902-5.248,17.224-12.354,25.547-18.519c23.597-17.477,46.861-35.406,69.767-53.779c32.179-25.81,63.674-52.492,94.15-80.296
		c33.254-30.339,65.402-62.009,95.119-95.844c20.927-23.827,40.747-48.777,57.889-75.487
		c33.19-51.759,74.822-116.453,74.822-208.713C962.773,241.676,846.888,115.658,705.116,115.658z M705.116,115.658"/>
</g>
</svg>
