<?xml version="1.0" encoding="iso-8859-1"?>
<!-- Generator: Adobe Illustrator 18.0.0, SVG Export Plug-In . SVG Version: 6.00 Build 0)  -->
<!DOCTYPE svg PUBLIC "-//W3C//DTD SVG 1.1//EN" "http://www.w3.org/Graphics/SVG/1.1/DTD/svg11.dtd">
<svg version="1.1" id="&#x56FE;&#x5C42;_1" xmlns="http://www.w3.org/2000/svg" xmlns:xlink="http://www.w3.org/1999/xlink" x="0px"
	 y="0px" viewBox="0 0 1024 1024" style="enable-background:new 0 0 1024 1024;" xml:space="preserve">
<circle style="fill:#1FDA9A;" cx="510.605" cy="512.245" r="448"/>
<g>
	<path style="fill:#FFFFFF;" d="M183.174,475.341h70.184v142.696c7.094-7.317,15.852-16.964,26.277-28.938l6.319,24.282
		c-16.631,18.851-34.816,36.589-54.55,53.22l-8.981-20.955c5.099-4.657,7.65-9.756,7.65-15.301V498.292h-46.899V475.341z
		 M223.754,378.215c21.506,16.854,39.249,33.377,53.22,49.561l-15.966,16.632c-12.422-15.301-30.384-32.15-53.886-50.56
		L223.754,378.215z M377.427,458.377h-77.502v-22.618h105.774c11.086-19.958,20.732-41.245,28.938-63.864l22.951,7.983
		c-8.43,21.069-17.853,39.696-28.273,55.881h50.56v22.618h-78.5v48.23h68.521v22.619h-68.521v50.227h86.15v22.951h-86.15v75.838
		h-23.948v-75.838h-84.819v-22.951h84.819v-50.227h-67.855v-22.619h67.855V458.377z M339.175,373.226
		c11.751,16.631,22.618,33.928,32.597,51.89l-19.625,9.979c-10.867-20.399-21.953-37.805-33.262-52.223L339.175,373.226z"/>
	<path style="fill:#FFFFFF;" d="M546.067,439.085c-0.889,32.379-6.102,63.531-15.634,93.468l-18.294-4.989
		c9.313-28.383,14.636-58.318,15.966-89.809L546.067,439.085z M559.04,374.556h23.283v302.688H559.04V374.556z M710.052,372.228H734
		v22.951h77.169v19.292H734v23.284h65.86v18.627H734V479h86.815v19.625H621.573v-6.652l-12.308,2.993
		c-6.876-21.288-14.968-40.913-24.281-58.874l16.964-5.655c7.983,15.083,14.968,31.267,20.955,48.563h87.148v-22.618h-66.858
		v-18.627h66.858v-23.284h-78.167v-19.292h78.167V372.228z M668.806,624.024v53.886h-22.618V520.245h151.012v123.737
		c0,21.729-9.646,32.597-28.938,32.597h-24.614l-5.654-20.955l23.283,0.998c8.648,0,12.973-5.879,12.973-17.63v-14.968H668.806z
		 M774.248,564.484v-24.946H668.806v24.946H774.248z M668.806,582.446v23.616h105.442v-23.616H668.806z"/>
</g>
</svg>
