<?xml version="1.0" encoding="iso-8859-1"?>
<!-- Generator: Adobe Illustrator 18.0.0, SVG Export Plug-In . SVG Version: 6.00 Build 0)  -->
<!DOCTYPE svg PUBLIC "-//W3C//DTD SVG 1.1//EN" "http://www.w3.org/Graphics/SVG/1.1/DTD/svg11.dtd">
<svg version="1.1" id="&#x56FE;&#x5C42;_1" xmlns="http://www.w3.org/2000/svg" xmlns:xlink="http://www.w3.org/1999/xlink" x="0px"
	 y="0px" viewBox="0 0 1024 1024" style="enable-background:new 0 0 1024 1024;" xml:space="preserve">
<g>
	<path style="fill-rule:evenodd;clip-rule:evenodd;fill:#ffffff;" d="M285.035,403.29c-4.647,0.516-9.812,1.033-14.976,1.033
		h-122.91c-21.174,0-38.732,8.779-52.159,24.272c-13.944,16.526-21.69,39.765-21.69,66.103l35.634,387.838
		c2.583,26.338,8.78,45.963,21.173,58.357c11.878,12.394,28.921,18.591,52.16,18.591h59.905
		c12.395-1.033,24.789-8.779,35.634-17.042c2.582-1.549,4.132-3.099,6.197-4.648c0,0,0.517-0.516,1.033-0.516V403.29L285.035,403.29
		z M928.506,575.26c-2.582-1.548-4.649-4.13-6.197-7.229c-5.681-9.296-2.582-21.69,7.747-27.887
		c7.229-4.649,23.239-33.568,23.239-60.939c-1.034-21.174-10.845-38.732-29.437-52.16c-21.173-14.976-51.643-23.239-85.727-23.239
		H622.263c-2.582,0-4.647-1.033-7.229-1.55c-10.846-4.13-15.493-15.493-11.878-25.821c17.042-45.962,19.625-95.539,17.558-150.28
		c-3.098-53.709-11.361-86.76-31.501-118.779c-22.724-35.634-49.061-43.381-67.136-43.381c-25.821,0-59.906,8.78-59.906,79.531
		c0,91.925-13.943,114.647-28.921,148.732c0,1.033-1.033,1.033-1.033,1.548c-7.746,14.977-32.018,41.831-63.004,64.554
		c-15.493,11.362-36.15,24.789-59.906,34.085v535.537c2.582,1.033,5.681,2.582,9.296,4.648c7.231,4.131,16.525,7.746,26.338,12.394
		C363.016,952.771,395.035,960,424.988,960h297.979c44.413,0,77.981-7.746,99.671-22.723c18.591-13.427,27.887-30.986,27.887-56.29
		c0-13.428-2.582-20.141-10.844-32.02c-1.55-2.582-2.582-4.647-3.099-7.23c-2.582-10.846,4.132-21.69,14.976-24.272
		c18.075-4.649,59.906-18.592,59.906-58.357c0-12.394-5.681-27.887-9.296-32.018c-4.132-3.099-7.23-7.231-7.747-11.878
		c-3.098-10.846,4.132-21.69,14.977-24.789c10.844-3.098,43.38-30.469,43.38-59.905C952.778,605.214,943.999,586.106,928.506,575.26
		L928.506,575.26z"/>
</g>
</svg>
