<?xml version="1.0" standalone="no"?><!DOCTYPE svg PUBLIC "-//W3C//DTD SVG 1.1//EN" "http://www.w3.org/Graphics/SVG/1.1/DTD/svg11.dtd"><svg t="1528372176736" class="icon" style="" viewBox="0 0 1137 1024" version="1.1" xmlns="http://www.w3.org/2000/svg" p-id="516" xmlns:xlink="http://www.w3.org/1999/xlink" width="142.125" height="128"><defs><style type="text/css"></style></defs><path d="M417.450667 862.833778l152.860444-152.860445 152.860445 152.860445-152.860445 152.860444z" fill="#999999" p-id="517"></path><path d="M1006.933333 0H125.155556C73.955556 0 28.444444 45.511111 28.444444 96.711111v665.6c0 51.2 45.511111 96.711111 96.711112 96.711111h881.777777c51.2 0 96.711111-45.511111 96.711111-96.711111V96.711111c0-51.2-39.822222-96.711111-96.711111-96.711111zM284.444444 512c-45.511111 0-85.333333-39.822222-85.333333-85.333333S238.933333 341.333333 284.444444 341.333333s85.333333 39.822222 85.333334 85.333334S329.955556 512 284.444444 512z m261.688889 0c-45.511111 0-85.333333-39.822222-85.333333-85.333333S500.622222 341.333333 546.133333 341.333333s85.333333 39.822222 85.333334 85.333334S597.333333 512 546.133333 512z m267.377778 0c-45.511111 0-85.333333-39.822222-85.333333-85.333333S768 341.333333 813.511111 341.333333s85.333333 39.822222 85.333333 85.333334S859.022222 512 813.511111 512z" fill="#999999" p-id="518"></path></svg>