<?xml version="1.0" standalone="no"?><!DOCTYPE svg PUBLIC "-//W3C//DTD SVG 1.1//EN" "http://www.w3.org/Graphics/SVG/1.1/DTD/svg11.dtd"><svg t="1501638660797" class="icon" style="" viewBox="0 0 1086 1024" version="1.1" xmlns="http://www.w3.org/2000/svg" fill="#ffffff" p-id="1002" xmlns:xlink="http://www.w3.org/1999/xlink" width="212.109375" height="200"><defs><style type="text/css"></style></defs><path d="M544.095522 207.856716c-168.119403 0-305.671642 137.552239-305.671642 305.671642 0 168.119403 137.552239 305.671642 305.671642 305.671642s305.671642-137.552239 305.671642-305.671642C849.767164 342.352239 712.214925 207.856716 544.095522 207.856716zM693.874627 663.307463c-12.226866 12.226866-30.567164 12.226866-42.79403 0l-106.985075-106.985075-106.985075 106.985075c-12.226866 12.226866-30.567164 12.226866-42.79403 0-12.226866-12.226866-12.226866-30.567164 0-42.79403l106.985075-106.985075-106.985075-106.985075c-12.226866-12.226866-12.226866-30.567164 0-42.79403 12.226866-12.226866 30.567164-12.226866 42.79403 0l106.985075 106.985075 106.985075-106.985075c12.226866-12.226866 30.567164-12.226866 42.79403 0 12.226866 12.226866 12.226866 30.567164 0 42.79403l-106.985075 106.985075 106.985075 106.985075C706.101493 632.740299 706.101493 651.080597 693.874627 663.307463z" p-id="1003"></path></svg>