<?xml version="1.0" encoding="iso-8859-1"?>
<!-- Generator: Adobe Illustrator 18.0.0, SVG Export Plug-In . SVG Version: 6.00 Build 0)  -->
<!DOCTYPE svg PUBLIC "-//W3C//DTD SVG 1.1//EN" "http://www.w3.org/Graphics/SVG/1.1/DTD/svg11.dtd">
<svg version="1.1" id="&#x56FE;&#x5C42;_1" xmlns="http://www.w3.org/2000/svg" xmlns:xlink="http://www.w3.org/1999/xlink" x="0px"
	 y="0px" viewBox="0 0 1024 1024" style="enable-background:new 0 0 1024 1024;" xml:space="preserve">
<path style="fill:#87c840;" d="M948.854,395.758L525.794,68.791c-9.025-6.975-21.628-6.957-30.632,0.044l-422.5,328.466
	c-10.901,8.475-12.868,24.181-4.394,35.082c4.929,6.339,12.303,9.657,19.755,9.657c5.362,0,10.766-1.718,15.327-5.264l23.748-18.463
	V935.48c0,13.807,11.193,25,25,25h717.376c13.807,0,25-11.193,25-25V416.922l23.804,18.397c10.925,8.443,26.625,6.433,35.069-4.493
	C961.79,419.902,959.779,404.201,948.854,395.758z M583.296,910.48h-145.02V654.51c9.139-6.636,25.299-16.882,45.103-23.083
	c17.566-5.501,34.55-6.737,50.48-3.668c17.3,3.331,33.891,11.896,49.437,25.506V910.48z M844.475,380.425V910.48H633.296V642.448
	c0-6.63-2.634-12.989-7.322-17.678c-56.892-56.892-117.07-53.729-157.536-41.059c-41.93,13.129-70.797,39.161-72.005,40.262
	c-5.195,4.737-8.156,11.443-8.156,18.474V910.48H177.099V380.425c0-0.324-0.012-0.645-0.024-0.965l333.477-259.257l334.016,258.148
	C844.511,379.036,844.475,379.726,844.475,380.425z"/>
</svg>
