<?xml version="1.0" encoding="iso-8859-1"?>
<!-- Generator: Adobe Illustrator 18.0.0, SVG Export Plug-In . SVG Version: 6.00 Build 0)  -->
<!DOCTYPE svg PUBLIC "-//W3C//DTD SVG 1.1//EN" "http://www.w3.org/Graphics/SVG/1.1/DTD/svg11.dtd">
<svg version="1.1" id="&#x56FE;&#x5C42;_1" xmlns="http://www.w3.org/2000/svg" xmlns:xlink="http://www.w3.org/1999/xlink" x="0px"
	 y="0px" viewBox="0 0 1024 1024" style="enable-background:new 0 0 1024 1024;" xml:space="preserve">
<circle style="fill:#DCDDDD;" cx="510.606" cy="512.245" r="448"/>
<g>
	<path style="fill-rule:evenodd;clip-rule:evenodd;fill:#FFA92F;" d="M383.215,416.437c-2.807,0.312-5.927,0.624-9.047,0.624H299.92
		c-12.791,0-23.398,5.303-31.509,14.662c-8.423,9.983-13.103,24.021-13.103,39.932l21.526,234.288
		c1.56,15.911,5.304,27.766,12.791,35.253c7.175,7.487,17.471,11.231,31.509,11.231h36.188c7.488-0.624,14.975-5.303,21.526-10.295
		c1.56-0.936,2.496-1.872,3.743-2.808c0,0,0.312-0.312,0.624-0.312V416.437L383.215,416.437z M771.927,520.322
		c-1.56-0.935-2.808-2.495-3.743-4.367c-3.432-5.616-1.56-13.103,4.68-16.846c4.367-2.808,14.038-20.278,14.038-36.812
		c-0.624-12.791-6.552-23.398-17.783-31.509c-12.79-9.047-31.197-14.039-51.786-14.039H586.93c-1.56,0-2.807-0.624-4.367-0.936
		c-6.552-2.495-9.359-9.359-7.175-15.598c10.295-27.765,11.855-57.714,10.607-90.782c-1.871-32.445-6.863-52.411-19.03-71.753
		c-13.727-21.526-29.637-26.206-40.556-26.206c-15.598,0-36.189,5.304-36.189,48.044c0,55.53-8.423,69.257-17.471,89.847
		c0,0.624-0.624,0.624-0.624,0.935c-4.68,9.048-19.342,25.27-38.06,38.996c-9.359,6.864-21.838,14.975-36.189,20.59v323.511
		c1.56,0.624,3.432,1.56,5.616,2.808c4.368,2.496,9.983,4.68,15.911,7.487c10.919,4.68,30.261,9.047,48.355,9.047h180.005
		c26.83,0,47.107-4.68,60.21-13.727c11.23-8.111,16.846-18.718,16.846-34.004c0-8.111-1.56-12.167-6.551-19.343
		c-0.936-1.56-1.56-2.807-1.872-4.367c-1.56-6.552,2.496-13.102,9.047-14.662c10.919-2.808,36.189-11.231,36.189-35.253
		c0-7.487-3.432-16.846-5.616-19.342c-2.496-1.872-4.367-4.368-4.68-7.175c-1.871-6.552,2.496-13.102,9.048-14.975
		c6.551-1.871,26.205-18.406,26.205-36.188C786.59,538.417,781.286,526.874,771.927,520.322L771.927,520.322z"/>
</g>
</svg>
