<?xml version="1.0" encoding="iso-8859-1"?>
<!-- Generator: Adobe Illustrator 18.0.0, SVG Export Plug-In . SVG Version: 6.00 Build 0)  -->
<!DOCTYPE svg PUBLIC "-//W3C//DTD SVG 1.1//EN" "http://www.w3.org/Graphics/SVG/1.1/DTD/svg11.dtd">
<svg version="1.1" id="&#x56FE;&#x5C42;_1" xmlns="http://www.w3.org/2000/svg" xmlns:xlink="http://www.w3.org/1999/xlink" x="0px"
	 y="0px" viewBox="0 0 1024 1024" style="enable-background:new 0 0 1024 1024;" xml:space="preserve">
<g style="opacity:0.3;">
	<path style="fill:#FA6771;" d="M666.079,176.438c-64.636,0-115.881,32.318-155.127,85.411
		c-39.703-53.094-90.491-85.411-155.127-85.411c-116.807,0-211.917,102.959-211.917,229.922c0,75.717,34.166,128.81,61.408,171.288
		c18.527,29.145,40.872,55.799,64.4,81.006c24.647,26.406,50.899,51.298,77.965,75.204c23.83,21.048,48.336,41.328,73.332,60.975
		c16.614,13.059,33.451,25.832,50.5,38.318c3.263,2.39,6.558,4.738,9.805,7.15c15.731,11.682,36.787,13.188,53.748,3.188
		c7.306-4.307,14.136-10.139,20.966-15.198c19.366-14.343,38.458-29.057,57.257-44.135c26.409-21.182,52.257-43.079,77.268-65.898
		c27.291-24.899,53.674-50.89,78.062-78.658c17.174-19.554,33.44-40.03,47.509-61.951c27.239-42.478,61.405-95.571,61.405-171.288
		C877.534,279.859,782.429,176.438,666.079,176.438z M666.079,176.438"/>
</g>
<g>
	<path style="fill:none;stroke:#FA6771;stroke-width:58;stroke-miterlimit:10;" d="M700.464,101.885
		c-78.942,0-141.529,39.471-189.461,104.316c-48.49-64.845-110.519-104.316-189.461-104.316
		c-142.66,0-258.821,125.747-258.821,280.811c0,92.475,41.728,157.32,75,209.199c22.627,35.596,49.918,68.149,78.654,98.935
		c30.103,32.251,62.164,62.652,95.222,91.849c29.104,25.706,59.035,50.475,89.562,74.47c20.291,15.949,40.855,31.549,61.677,46.798
		c3.985,2.919,8.01,5.787,11.975,8.732c19.212,14.268,44.929,16.106,65.644,3.894c8.923-5.26,17.264-12.383,25.606-18.562
		c23.652-17.518,46.97-35.488,69.93-53.904c32.254-25.87,63.823-52.614,94.369-80.483c33.331-30.41,65.554-62.154,95.34-96.067
		c20.976-23.882,40.842-48.89,58.024-75.663c33.267-51.879,74.996-116.724,74.996-209.199
		C958.721,228.196,842.566,101.885,700.464,101.885z M700.464,101.885"/>
</g>
</svg>
