<?xml version="1.0" encoding="iso-8859-1"?>
<!-- Generator: Adobe Illustrator 18.0.0, SVG Export Plug-In . SVG Version: 6.00 Build 0)  -->
<!DOCTYPE svg PUBLIC "-//W3C//DTD SVG 1.1//EN" "http://www.w3.org/Graphics/SVG/1.1/DTD/svg11.dtd">
<svg version="1.1" id="&#x56FE;&#x5C42;_1" xmlns="http://www.w3.org/2000/svg" xmlns:xlink="http://www.w3.org/1999/xlink" x="0px"
	 y="0px" viewBox="0 0 1024 1024" style="enable-background:new 0 0 1024 1024;" xml:space="preserve">
<g>
	<path style="fill:#FFFFFF;" d="M668.726,587.351l-122.609-90.456l0.344-226.06c0.034-19.048-15.38-34.496-34.394-34.529
		c-0.034,0-0.034,0-0.067,0c-19.014,0-34.428,15.38-34.461,34.394l-0.371,243.083c-0.013,7.371,2.295,14.197,6.222,19.805
		c2.184,3.341,4.986,6.358,8.385,8.868l136.028,100.356c6.159,4.544,13.327,6.731,20.428,6.731c10.567,0,21-4.847,27.764-14
		C687.304,620.231,684.039,598.659,668.726,587.351z"/>
	<path style="fill:#FFFFFF;" d="M512,64C264.98,64,64,264.98,64,512s200.98,448,448,448s448-200.98,448-448S759.02,64,512,64z
		 M512,891.077c-209.024,0-379.077-170.053-379.077-379.077S302.976,132.923,512,132.923S891.077,302.976,891.077,512
		S721.023,891.077,512,891.077z"/>
</g>
</svg>
