<?xml version="1.0" encoding="iso-8859-1"?>
<!-- Generator: Adobe Illustrator 18.0.0, SVG Export Plug-In . SVG Version: 6.00 Build 0)  -->
<!DOCTYPE svg PUBLIC "-//W3C//DTD SVG 1.1//EN" "http://www.w3.org/Graphics/SVG/1.1/DTD/svg11.dtd">
<svg version="1.1" id="&#x56FE;&#x5C42;_1" xmlns="http://www.w3.org/2000/svg" xmlns:xlink="http://www.w3.org/1999/xlink" x="0px"
	 y="0px" viewBox="0 0 1024 1024" style="enable-background:new 0 0 1024 1024;" xml:space="preserve">
<g>
	<path style="fill:#999999;" d="M831.075,67.624H192.619c-68.427,0-124.097,55.669-124.097,124.097v619.925
		c0,68.427,55.669,124.097,124.097,124.097h638.456c68.427,0,124.097-55.67,124.097-124.097V191.721
		C955.171,123.293,899.502,67.624,831.075,67.624z M889.171,811.646c0,32.035-26.062,58.097-58.097,58.097H192.619
		c-32.035,0-58.097-26.062-58.097-58.097V191.721c0-32.035,26.062-58.097,58.097-58.097h638.456
		c32.035,0,58.097,26.062,58.097,58.097V811.646z"/>
	<path style="fill:#999999;" d="M254.594,288.289H773.28c18.226,0,33-14.774,33-33s-14.774-33-33-33H254.594
		c-18.226,0-33,14.774-33,33S236.368,288.289,254.594,288.289z"/>
	<path style="fill:#999999;" d="M271.185,374.321c-43.835,0-79.498,35.663-79.498,79.498s35.663,79.498,79.498,79.498
		c43.835,0,79.498-35.663,79.498-79.498S315.02,374.321,271.185,374.321z M271.185,498.317c-24.536,0-44.498-19.962-44.498-44.498
		s19.961-44.498,44.498-44.498s44.498,19.962,44.498,44.498S295.721,498.317,271.185,498.317z"/>
	<path style="fill:#999999;" d="M753.436,374.321c-43.835,0-79.498,35.663-79.498,79.498s35.663,79.498,79.498,79.498
		c43.835,0,79.498-35.663,79.498-79.498S797.271,374.321,753.436,374.321z M753.436,498.317c-24.536,0-44.498-19.962-44.498-44.498
		s19.962-44.498,44.498-44.498s44.498,19.962,44.498,44.498S777.972,498.317,753.436,498.317z"/>
	<path style="fill:#999999;" d="M512.43,374.321c-43.835,0-79.498,35.663-79.498,79.498s35.663,79.498,79.498,79.498
		c43.835,0,79.498-35.663,79.498-79.498S556.265,374.321,512.43,374.321z M512.43,498.317c-24.536,0-44.498-19.962-44.498-44.498
		s19.961-44.498,44.498-44.498s44.498,19.962,44.498,44.498S536.966,498.317,512.43,498.317z"/>
	<path style="fill:#999999;" d="M271.185,618.509c-43.835,0-79.498,35.663-79.498,79.498s35.663,79.498,79.498,79.498
		c43.835,0,79.498-35.663,79.498-79.498S315.02,618.509,271.185,618.509z M271.185,742.505c-24.536,0-44.498-19.962-44.498-44.498
		s19.961-44.498,44.498-44.498s44.498,19.962,44.498,44.498S295.721,742.505,271.185,742.505z"/>
	<path style="fill:#999999;" d="M753.436,618.509c-43.835,0-79.498,35.663-79.498,79.498s35.663,79.498,79.498,79.498
		c43.835,0,79.498-35.663,79.498-79.498S797.271,618.509,753.436,618.509z M753.436,742.505c-24.536,0-44.498-19.962-44.498-44.498
		s19.962-44.498,44.498-44.498s44.498,19.962,44.498,44.498S777.972,742.505,753.436,742.505z"/>
	<path style="fill:#999999;" d="M512.43,618.509c-43.835,0-79.498,35.663-79.498,79.498s35.663,79.498,79.498,79.498
		c43.835,0,79.498-35.663,79.498-79.498S556.265,618.509,512.43,618.509z M512.43,742.505c-24.536,0-44.498-19.962-44.498-44.498
		s19.961-44.498,44.498-44.498s44.498,19.962,44.498,44.498S536.966,742.505,512.43,742.505z"/>
</g>
</svg>
