<?xml version="1.0" encoding="iso-8859-1"?>
<!-- Generator: Adobe Illustrator 18.0.0, SVG Export Plug-In . SVG Version: 6.00 Build 0)  -->
<!DOCTYPE svg PUBLIC "-//W3C//DTD SVG 1.1//EN" "http://www.w3.org/Graphics/SVG/1.1/DTD/svg11.dtd">
<svg version="1.1" id="&#x56FE;&#x5C42;_1" xmlns="http://www.w3.org/2000/svg" xmlns:xlink="http://www.w3.org/1999/xlink" x="0px"
	 y="0px" viewBox="0 0 1024 1024" style="enable-background:new 0 0 1024 1024;" xml:space="preserve">
<g transform="scale(0.1953125, 0.1953125)">
	<path style="fill:#FFFFFF;" d="M4874.735,368.159c-53.971-53.971-134.928-53.971-188.899,0L3269.098,1757.911
		c-53.971,53.971-53.971,134.927,0,188.898c26.986,26.985,67.464,40.478,94.449,40.478c40.478,0,67.464-13.493,94.449-40.478
		L4874.735,557.057C4928.706,503.086,4928.706,422.13,4874.735,368.159z M4294.546,1717.433
		c-80.957,0-134.927,53.971-134.927,134.927v2698.548c0,40.478-40.478,80.957-80.957,80.957H678.492
		c-40.478,13.493-80.956-26.985-80.956-67.464V948.347c0-40.478,40.478-80.956,80.956-80.956h2604.099
		c80.957,0,134.928-53.971,134.928-134.927s-53.971-134.927-134.928-134.927H678.492c-188.898,0-350.811,161.913-350.811,350.811
		v3616.054c0,188.898,161.913,350.812,350.811,350.812h3400.171c202.391,0,350.812-161.913,350.812-350.812V1865.853
		C4429.474,1784.897,4375.503,1717.433,4294.546,1717.433z M2796.853,2135.708H1218.202c-80.956,0-134.927,53.971-134.927,134.927
		c0,80.957,53.971,134.927,134.927,134.927H2783.36c80.957,0,134.928-53.971,134.928-134.927
		C2918.287,2189.679,2864.316,2135.708,2796.853,2135.708z M1083.274,3565.939c0,80.957,53.971,134.927,134.927,134.927h2320.751
		c80.957,0,134.927-53.971,134.927-134.927s-53.971-134.927-134.927-134.927H1218.202
		C1150.738,3431.011,1083.274,3484.982,1083.274,3565.939z"/>
</g>
</svg>
