<?xml version="1.0" encoding="iso-8859-1"?>
<!-- Generator: Adobe Illustrator 18.0.0, SVG Export Plug-In . SVG Version: 6.00 Build 0)  -->
<!DOCTYPE svg PUBLIC "-//W3C//DTD SVG 1.1//EN" "http://www.w3.org/Graphics/SVG/1.1/DTD/svg11.dtd">
<svg version="1.1" id="&#x56FE;&#x5C42;_1" xmlns="http://www.w3.org/2000/svg" xmlns:xlink="http://www.w3.org/1999/xlink" x="0px"
	 y="0px" viewBox="0 0 1024 1024" style="enable-background:new 0 0 1024 1024;" xml:space="preserve">
<g>
	<g>
		<path style="fill:#999999;" d="M510.558,45.563c-233.554,0-373.531,190.548-340.027,398.272
			c31.794,197.37,310.332,474.384,340.027,497.728c29.749-23.343,314.828-299.36,340.081-497.728
			C876.863,236.111,742.942,45.563,510.558,45.563L510.558,45.563z M797.351,436.867C779.18,579.925,593.492,787.254,510.9,867.946
			c-80.683-80.541-264.13-288.965-287.381-432.919c-14.015-87.064,7.865-172.827,59.978-235.452
			c53.338-64.016,133.972-99.255,227.066-99.255h-0.005c90.548,0,166.499,32.558,219.684,94.234
			C784.411,257.369,808.88,345.677,797.351,436.867L797.351,436.867z M510.558,240.692c-81.804,0-148.281,67.847-148.281,151.129
			c0,83.325,66.472,151.124,148.281,151.124c81.759,0,148.28-67.799,148.28-151.124
			C658.789,308.543,592.317,240.692,510.558,240.692L510.558,240.692z M510.558,488.188c-52.114,0-94.552-43.257-94.552-96.368
			c0-53.112,42.39-96.373,94.552-96.373c52.113,0,94.556,43.26,94.556,96.373C605.114,444.98,562.724,488.188,510.558,488.188
			L510.558,488.188z M510.558,488.188"/>
	</g>
</g>
</svg>
