<?xml version="1.0" encoding="iso-8859-1"?>
<!-- Generator: Adobe Illustrator 18.0.0, SVG Export Plug-In . SVG Version: 6.00 Build 0)  -->
<!DOCTYPE svg PUBLIC "-//W3C//DTD SVG 1.1//EN" "http://www.w3.org/Graphics/SVG/1.1/DTD/svg11.dtd">
<svg version="1.1" id="&#x56FE;&#x5C42;_1" xmlns="http://www.w3.org/2000/svg" xmlns:xlink="http://www.w3.org/1999/xlink" x="0px"
	 y="0px" viewBox="0 0 1024 1024" style="enable-background:new 0 0 1024 1024;" xml:space="preserve">
<g>
	<path style="fill:#00b9ff;" d="M511.835,940.763c-247.385,0-447.997-200.617-447.997-448.002
		c0-247.386,200.612-447.998,447.997-447.998c247.386,0,448.003,200.612,448.003,447.998
		C959.838,740.147,759.221,940.763,511.835,940.763L511.835,940.763z M735.835,436.852H567.836v-168c0-30.911-25.088-56-56.001-56
		c-30.911,0-56,25.088-56,56v168H287.836c-30.911,0-56,25.087-56,56c0,30.911,25.088,56,56,56h167.999V716.85
		c0,30.911,25.088,56,56,56c30.912,0,56.001-25.088,56.001-56V548.761h167.999c30.911,0,56-25.088,56-56
		C791.834,461.939,766.746,436.852,735.835,436.852L735.835,436.852z M735.835,436.852"/>
</g>
</svg>
