<?xml version="1.0" encoding="iso-8859-1"?>
<!-- Generator: Adobe Illustrator 18.0.0, SVG Export Plug-In . SVG Version: 6.00 Build 0)  -->
<!DOCTYPE svg PUBLIC "-//W3C//DTD SVG 1.1//EN" "http://www.w3.org/Graphics/SVG/1.1/DTD/svg11.dtd">
<svg version="1.1" id="&#x56FE;&#x5C42;_1" xmlns="http://www.w3.org/2000/svg" xmlns:xlink="http://www.w3.org/1999/xlink" x="0px"
	 y="0px" viewBox="0 0 1024 1024" style="enable-background:new 0 0 1024 1024;" xml:space="preserve">
<path style="fill:#FFA92F;" d="M908.053,61.653H112.859c-27.5,0-50,22.5-50,50v666.053c0,27.5,22.5,50,50,50h571.813
	l147.693,128.085l0.207-128.085h75.481c27.5,0,50-22.5,50-50V111.653C958.053,84.153,935.553,61.653,908.053,61.653z"/>
<g>
	<path style="fill:#FFFFFF;" d="M236.78,260.585h47.314v475.568H236.78V260.585z M267.11,171.416l34.576-30.936
		c22.24,21.031,51.56,50.551,87.956,88.562l-39.428,34.575C315.433,223.181,287.734,192.448,267.11,171.416z M375.689,331.557
		h257.195v242.637h-213.52v34.576h-43.675V331.557z M589.21,376.445H419.364v152.861H589.21V376.445z M426.644,224.797v-45.495
		h346.97v468.896c0,58.636-26.491,87.956-79.464,87.956c-34.376,0-67.535-0.407-99.48-1.213c-1.621-12.132-4.853-28.51-9.706-49.134
		c33.562,2.426,65.915,3.64,97.055,3.64c29.52,0,44.281-15.771,44.281-47.314V224.797H426.644z"/>
</g>
</svg>
