<?xml version="1.0" encoding="iso-8859-1"?>
<!-- Generator: Adobe Illustrator 18.0.0, SVG Export Plug-In . SVG Version: 6.00 Build 0)  -->
<!DOCTYPE svg PUBLIC "-//W3C//DTD SVG 1.1//EN" "http://www.w3.org/Graphics/SVG/1.1/DTD/svg11.dtd">
<svg version="1.1" id="&#x56FE;&#x5C42;_1" xmlns="http://www.w3.org/2000/svg" xmlns:xlink="http://www.w3.org/1999/xlink" x="0px"
	 y="0px" viewBox="0 0 1024 1024" style="enable-background:new 0 0 1024 1024;" xml:space="preserve">
<path style="opacity:0.2;fill:#FFA92F;" d="M781.097,741.779c53.99-62.414,86.651-143.786,86.651-232.788
	c0-196.613-159.387-356-356-356s-356,159.387-356,356s159.387,356,356,356c67.614,0,130.825-18.85,184.665-51.58l53.679,20.927
	l64.209,25.032l-18.728-66.322L781.097,741.779z"/>
<path style="fill:#FFA92F;" d="M879.767,757.454c49.723-73.444,75.984-159.272,75.984-248.466
	c0-244.823-199.18-444.001-444.005-444.001c-244.823,0-444,199.178-444,444.001c0,244.825,199.178,444.006,444,444.006l8-0.031
	v-0.072c68.396-1.241,136.128-18.374,196.604-49.769l141.564,40.462c5.265,1.503,10.564,2.266,15.754,2.266
	c14.743-0.001,27.893-6.225,36.071-17.07c8.884-11.754,11.206-27.224,6.541-43.564L879.767,757.454z M817.022,760.174
	l33.627,117.714L721.211,840.89l-0.118-0.032c-2.768-0.745-5.549-1.123-8.267-1.123l-3.853,0.03l-0.215,0.268
	c-3.801,0.505-7.486,1.716-10.835,3.579c-56.592,31.55-120.971,48.227-186.178,48.227c-211.132,0-382.9-171.769-382.9-382.9
	c0-211.135,171.769-382.905,382.9-382.905c211.135,0,382.906,171.77,382.906,382.905c0,81.468-25.234,159.23-72.97,224.869
	C816.192,741.342,814.45,751.201,817.022,760.174z"/>
<g>
	<path style="fill:#FFA92F;" d="M511.745,264.187c-74.881,0-135.801,60.92-135.801,135.801c0,16.852,13.71,30.562,30.562,30.562
		c16.853,0,30.563-13.71,30.563-30.562c0-41.177,33.5-74.677,74.676-74.677c41.18,0,74.682,33.5,74.682,74.677
		c0,42.821-20.522,55.406-48.985,72.861c-23.742,14.555-56.259,34.489-56.259,77.477v90.198c0,16.853,13.71,30.563,30.563,30.563
		c16.855,0,30.567-13.711,30.567-30.563v-90.198c0-7.241,4.817-11.753,27.132-25.412c31.104-19.054,78.107-47.85,78.107-124.926
		C647.552,325.107,586.629,264.187,511.745,264.187z"/>
	<path style="fill:#FFA92F;" d="M511.745,692.664c-16.853,0-30.563,13.71-30.563,30.562c0,16.854,13.71,30.567,30.563,30.567
		c16.855,0,30.567-13.713,30.567-30.567C542.313,706.374,528.6,692.664,511.745,692.664z"/>
</g>
</svg>
