<?xml version="1.0" encoding="iso-8859-1"?>
<!-- Generator: Adobe Illustrator 18.0.0, SVG Export Plug-In . SVG Version: 6.00 Build 0)  -->
<!DOCTYPE svg PUBLIC "-//W3C//DTD SVG 1.1//EN" "http://www.w3.org/Graphics/SVG/1.1/DTD/svg11.dtd">
<svg version="1.1" id="&#x56FE;&#x5C42;_1" xmlns="http://www.w3.org/2000/svg" xmlns:xlink="http://www.w3.org/1999/xlink" x="0px"
	 y="0px" viewBox="0 0 1024 1024" style="enable-background:new 0 0 1024 1024;" xml:space="preserve">
<g>
	<path style="fill:#FFFFFF;" d="M916.235,489.692c-16.59-9.922-38.081-4.516-48.003,12.073L664.824,841.874L529.95,717.957
		c-14.233-13.078-36.375-12.142-49.453,2.094c-13.078,14.234-12.141,36.375,2.094,49.453l166.528,153
		c6.502,5.974,14.97,9.227,23.679,9.227c1.674,0,3.356-0.121,5.036-0.364c10.417-1.515,19.6-7.637,25.003-16.671l225.472-377
		C938.229,521.105,932.824,499.614,916.235,489.692z"/>
	<path style="fill:#FFFFFF;" d="M488.655,880.623H195.324c-28.886,0-52.3-23.414-52.3-52.299V200.622
		c0-28.885,24.098-56.93,52.931-56.93h631.384c28.887,0,52.616,23.73,52.616,52.615V397.93
		c18.888,10.996,36.462,25.624,52.615,40.146V196.308c0-57.771-47.459-105.23-105.231-105.23H195.956
		c-57.719,0-105.231,51.773-105.231,109.545v627.702c0,57.719,46.828,104.599,104.547,104.599h352.786
		C525.854,918.243,506.386,900.249,488.655,880.623z"/>
	<path style="fill:#FFFFFF;" d="M748.417,479.092c0-14.522-11.838-26.308-26.307-26.308H301.186
		c-14.522,0-26.308,11.786-26.308,26.308c0,14.522,11.786,26.308,26.308,26.308h420.923
		C736.631,505.399,748.417,493.614,748.417,479.092z"/>
	<path style="fill:#FFFFFF;" d="M722.109,301.539H301.186c-14.522,0-26.308,11.786-26.308,26.307
		c0,14.522,11.786,26.308,26.308,26.308h420.923c14.522,0,26.307-11.786,26.307-26.308
		C748.417,313.324,736.579,301.539,722.109,301.539z"/>
	<path style="fill:#FFFFFF;" d="M301.186,596.784c-14.522,0-26.308,11.786-26.308,26.308c0,14.522,11.786,26.308,26.308,26.308
		h260.923c14.522,0,26.307-11.786,26.307-26.308c0-14.522-11.838-26.308-26.307-26.308H301.186z"/>
</g>
</svg>
