<?xml version="1.0" encoding="iso-8859-1"?>
<!-- Generator: Adobe Illustrator 18.0.0, SVG Export Plug-In . SVG Version: 6.00 Build 0)  -->
<!DOCTYPE svg PUBLIC "-//W3C//DTD SVG 1.1//EN" "http://www.w3.org/Graphics/SVG/1.1/DTD/svg11.dtd">
<svg version="1.1" id="&#x56FE;&#x5C42;_1" xmlns="http://www.w3.org/2000/svg" xmlns:xlink="http://www.w3.org/1999/xlink" x="0px"
	 y="0px" viewBox="0 0 1024 1024" style="enable-background:new 0 0 1024 1024;" xml:space="preserve">
<path style="fill:#87C840;" d="M908.053,61.653H112.859c-27.5,0-50,22.5-50,50v666.053c0,27.5,22.5,50,50,50h571.813
	l147.693,128.085l0.207-128.085h75.481c27.5,0,50-22.5,50-50V111.653C958.053,84.153,935.553,61.653,908.053,61.653z"/>
<g>
	<path style="fill:#FFFFFF;" d="M526.731,295.768c66.726,75.218,161.553,129.811,284.491,163.78
		c-11.729,17.392-21.638,33.163-29.723,47.313c-47.314-16.984-90.79-36.594-130.417-58.839v36.396H361.132v-34.879
		c-41.05,24.264-86.136,46.404-135.271,66.422c-8.492-14.961-17.392-28.913-26.689-41.855
		c129-47.717,223.425-107.163,283.278-178.338H526.731z M322.916,137.447h52.773c-8.293,21.435-17.392,42.059-27.296,61.872h175.911
		v41.855H325.646c-24.871,41.655-53.888,79.463-87.046,113.433c-11.326-12.132-23.051-23.657-35.183-34.576
		C255.585,269.078,295.416,208.22,322.916,137.447z M311.998,535.979h388.219v201.995h-47.314v-37.609H359.311v38.822h-47.313
		V535.979z M390.248,343.082c-13.753-23.453-29.927-47.717-48.527-72.791l34.576-21.23c19.003,23.05,36.396,45.901,52.167,68.545
		L390.248,343.082z M652.902,578.44H359.311v79.464h293.591V578.44z M506.107,339.443c-38.822,38.419-84.316,73.397-136.483,104.94
		h275.09C591.334,414.053,545.128,379.074,506.107,339.443z M583.751,137.447h52.167c-6.474,21.639-13.753,42.263-21.837,61.872
		h189.863v41.855H594.063c-12.738,24.064-27.098,46.508-43.068,67.331c-12.132-10.511-25.277-20.823-39.429-30.936
		C546.342,233.896,570.406,187.188,583.751,137.447z M677.166,350.362c-15.368-25.478-33.566-51.561-54.593-78.251l37.002-23.05
		c22.24,25.884,41.447,51.361,57.626,76.431L677.166,350.362z"/>
</g>
</svg>
