<?xml version="1.0" encoding="iso-8859-1"?>
<!-- Generator: Adobe Illustrator 18.0.0, SVG Export Plug-In . SVG Version: 6.00 Build 0)  -->
<!DOCTYPE svg PUBLIC "-//W3C//DTD SVG 1.1//EN" "http://www.w3.org/Graphics/SVG/1.1/DTD/svg11.dtd">
<svg version="1.1" id="&#x56FE;&#x5C42;_1" xmlns="http://www.w3.org/2000/svg" xmlns:xlink="http://www.w3.org/1999/xlink" x="0px"
	 y="0px" viewBox="0 0 1024 1024" style="enable-background:new 0 0 1024 1024;" xml:space="preserve">
<path style="fill:#FFFFFF;" d="M947.773,928.633c-15.895-102.924-68.251-197.319-147.426-265.799
	c-48.566-42.007-105.409-72.473-166.254-89.996c86.139-44.98,145.111-135.131,145.111-238.85
	c0-148.505-120.819-269.323-269.323-269.323S240.559,185.482,240.559,333.988c0,104.356,59.701,194.972,146.705,239.667
	c-59.913,17.676-115.87,47.911-163.767,89.401C144.272,731.685,91.971,826.25,76.22,929.33c-2.172,14.23,7.602,27.527,21.83,29.701
	c1.336,0.204,2.66,0.303,3.971,0.303c12.654,0,23.76-9.237,25.733-22.131c13.876-90.853,60-174.221,129.876-234.749
	c70.572-61.133,160.928-94.8,254.424-94.8c93.386,0,183.662,33.597,254.195,94.605c69.829,60.397,116,143.616,130.008,234.327
	c2.197,14.226,15.496,23.97,29.737,21.781C940.218,956.17,949.97,942.859,947.773,928.633z M292.686,333.988
	c0-119.763,97.433-217.196,217.196-217.196s217.196,97.433,217.196,217.196s-97.433,217.196-217.196,217.196
	S292.686,453.751,292.686,333.988z"/>
</svg>
