<?xml version="1.0" encoding="iso-8859-1"?>
<!-- Generator: Adobe Illustrator 18.0.0, SVG Export Plug-In . SVG Version: 6.00 Build 0)  -->
<!DOCTYPE svg PUBLIC "-//W3C//DTD SVG 1.1//EN" "http://www.w3.org/Graphics/SVG/1.1/DTD/svg11.dtd">
<svg version="1.1" id="&#x56FE;&#x5C42;_1" xmlns="http://www.w3.org/2000/svg" xmlns:xlink="http://www.w3.org/1999/xlink" x="0px"
	 y="0px" viewBox="0 0 1024 1024" style="enable-background:new 0 0 1024 1024;" xml:space="preserve">
<circle style="fill:#87C840;" cx="510.605" cy="512.245" r="448"/>
<g>
	<path style="fill:#FFFFFF;" d="M459.331,640.865c0,15.248,12.346,27.597,27.545,27.597h273.693
		c15.242,0,27.585-12.353,27.585-27.597c0-15.208-12.346-27.597-27.585-27.597l-273.693,0
		C471.677,613.268,459.331,625.658,459.331,640.865z"/>
	<path style="fill:#FFFFFF;" d="M769.939,731.466H267.381c-15.042,0-27.272,12.233-27.272,27.324
		c0,15.055,12.23,27.328,27.272,27.328h493.457c22.922,0,39.25-28.335,16.102-51.708C775.347,732.8,772.204,731.466,769.939,731.466
		z"/>
	<path style="fill:#FFFFFF;" d="M257.702,668.052l96.517-25.862c11.368-3.046,15.175-17.256,6.853-25.578l-70.655-70.655
		c-8.322-8.322-22.532-4.514-25.578,6.854l-25.861,96.517C235.932,660.696,246.334,671.098,257.702,668.052z"/>
	<path style="fill:#FFFFFF;" d="M387.688,596.258c4.283,4.283,11.292,4.283,15.576,0l162.173-162.173
		c4.284-4.283,4.284-11.292,0-15.576l-76.165-76.165c-4.283-4.283-11.292-4.283-15.576,0L311.522,504.517
		c-4.283,4.283-4.283,11.292,0,15.576L387.688,596.258z"/>
	<path style="fill:#FFFFFF;" d="M593.961,389.985c4.284,4.283,11.293,4.283,15.576,0l57.154-57.154
		c4.283-4.283,4.283-11.292,0-15.576l-76.166-76.166c-4.284-4.283-11.293-4.283-15.576,0l-57.154,57.154
		c-4.283,4.283-4.283,11.292,0,15.576L593.961,389.985z"/>
</g>
</svg>
