<?xml version="1.0" encoding="iso-8859-1"?>
<!-- Generator: Adobe Illustrator 18.0.0, SVG Export Plug-In . SVG Version: 6.00 Build 0)  -->
<!DOCTYPE svg PUBLIC "-//W3C//DTD SVG 1.1//EN" "http://www.w3.org/Graphics/SVG/1.1/DTD/svg11.dtd">
<svg version="1.1" id="&#x56FE;&#x5C42;_1" xmlns="http://www.w3.org/2000/svg" xmlns:xlink="http://www.w3.org/1999/xlink" x="0px"
	 y="0px" viewBox="0 0 1024 1024" style="enable-background:new 0 0 1024 1024;" xml:space="preserve">
<g>
	<path style="fill:#1FDA9A;" d="M870.545,172.931h-44.797v44.802h44.797c24.73,0,44.802,20.068,44.802,44.797v604.801
		c0,24.729-20.072,44.802-44.802,44.802H153.745c-24.73,0-44.798-20.073-44.798-44.802V262.53c0-24.729,20.068-44.797,44.798-44.797
		h358.399v-44.802H153.745c-49.461,0-89.6,40.14-89.6,89.599v604.801c0,49.506,40.14,89.599,89.6,89.599h716.799
		c49.506,0,89.6-40.093,89.6-89.599V262.53C960.145,213.071,920.051,172.931,870.545,172.931L870.545,172.931z M780.944,576.132
		V172.931c0-61.867-50.132-111.999-111.999-111.999c-61.871,0-111.998,50.132-111.998,111.999v403.201l111.998,179.201
		L780.944,576.132z M601.745,172.931c0-37.095,30.106-67.197,67.201-67.197c37.095,0,67.202,30.102,67.202,67.197v403.201H601.745
		V172.931z M713.744,620.93l-44.798,67.201l-44.802-67.201H713.744z M265.743,441.731h156.802c12.365,0,22.399-10.034,22.399-22.4
		c0-12.364-10.034-22.399-22.399-22.399H265.743c-12.365,0-22.399,10.034-22.399,22.399
		C243.344,431.697,253.379,441.731,265.743,441.731L265.743,441.731z M265.743,598.532h201.604c12.365,0,22.399-10.034,22.399-22.4
		c0-12.365-10.034-22.399-22.399-22.399H265.743c-12.365,0-22.399,10.034-22.399,22.399
		C243.344,588.498,253.379,598.532,265.743,598.532L265.743,598.532z M243.344,732.934c0,12.365,10.034,22.399,22.399,22.399h268.8
		c12.366,0,22.405-10.034,22.405-22.399c0-12.366-10.039-22.405-22.405-22.405h-268.8
		C253.379,710.529,243.344,720.568,243.344,732.934L243.344,732.934z M243.344,732.934"/>
</g>
</svg>
