<?xml version="1.0" encoding="iso-8859-1"?>
<!-- Generator: Adobe Illustrator 18.0.0, SVG Export Plug-In . SVG Version: 6.00 Build 0)  -->
<!DOCTYPE svg PUBLIC "-//W3C//DTD SVG 1.1//EN" "http://www.w3.org/Graphics/SVG/1.1/DTD/svg11.dtd">
<svg version="1.1" id="&#x56FE;&#x5C42;_1" xmlns="http://www.w3.org/2000/svg" xmlns:xlink="http://www.w3.org/1999/xlink" x="0px"
	 y="0px" viewBox="0 0 188 142" style="enable-background:new 0 0 188 142;" xml:space="preserve">
<rect x="-0.544" y="-0.032" style="fill:#F9EBD4;" width="188.515" height="142.01"/>
<g>
	<rect x="111.854" y="25.789" style="fill:#13617F;" width="20.983" height="100.155"/>
</g>
<g>
	<rect x="122.331" y="25.789" style="fill:#6FC1C1;" width="10.506" height="100.155"/>
</g>
<g>
	<polygon style="fill:#0AA592;" points="132.838,26.88 145.369,125.915 161.805,122.954 149.276,23.92 	"/>
</g>
<g>
	<polygon style="fill:#77DBBF;" points="141.046,25.402 153.574,124.436 161.805,122.954 149.275,23.92 	"/>
</g>
<g>
	<polygon style="fill:#22B473;" points="158.154,94.084 141.716,97.047 136.422,55.212 152.86,52.25 	"/>
</g>
<g>
	<rect x="113.364" y="37.393" style="fill:#F9F6F2;" width="17.552" height="20.49"/>
</g>
<g>
	<rect x="122.14" y="37.393" style="fill:#F3EAE4;" width="8.775" height="20.49"/>
</g>
<g>
	<rect x="113.364" y="96.794" style="fill:#F9F6F2;" width="17.552" height="20.489"/>
</g>
<g>
	<rect x="122.14" y="96.794" style="fill:#F3EAE4;" width="8.775" height="20.489"/>
</g>
<g>
	<g>
		<g>
			<rect x="26.33" y="64.108" style="fill:#8ECFB7;" width="58.885" height="18.437"/>
		</g>
		<g>
			<rect x="78.087" y="64.108" style="fill:#23AE7C;" width="1.537" height="18.437"/>
		</g>
		<g>
			<rect x="71.5" y="64.108" style="fill:#23AE7C;" width="1.537" height="18.437"/>
		</g>
		<g>
			<rect x="30.658" y="67.567" style="fill:#23AE7C;" width="11.65" height="11.651"/>
		</g>
	</g>
	<g style="opacity:0.4;">
		<rect x="26.33" y="73.327" style="fill:#FFFFFF;" width="58.885" height="9.219"/>
	</g>
</g>
<g>
	<path style="fill:#1695A4;" d="M98.067,109.813H96.92c-0.379,0-0.688,0.345-0.688,0.769v13.572c0,0.424,0.309,0.769,0.688,0.769
		h1.147v1.535H25.1c-1.14,0-2.065-1.032-2.065-2.304v-13.572c0-1.274,0.925-2.305,2.065-2.305h72.967V109.813z"/>
	<path style="fill:#15B0BF;" d="M98.067,109.813H96.92c-0.379,0-0.688,0.345-0.688,0.769v13.572c0,0.424,0.309,0.769,0.688,0.769
		h1.147v1.535H60.208v-18.181h37.859V109.813z"/>
	<path style="fill:#D1ECFB;" d="M96.232,110.582v13.572c0,0.424,0.309,0.769,0.688,0.769H25.1c-0.378,0-0.688-0.345-0.688-0.769
		v-13.572c0-0.424,0.31-0.769,0.688-0.769h71.82C96.541,109.813,96.232,110.158,96.232,110.582z"/>
	<path style="fill:#FFFFFF;" d="M96.232,110.582v13.572c0,0.424,0.309,0.769,0.688,0.769H58.83c-0.379,0-0.688-0.345-0.688-0.769
		v-13.572c0-0.424,0.31-0.769,0.688-0.769h38.09C96.541,109.813,96.232,110.158,96.232,110.582z"/>
	<g>
		<rect x="24.956" y="123.386" style="fill:#FFFFFF;" width="33.163" height="0.512"/>
		<rect x="24.956" y="110.454" style="fill:#FFFFFF;" width="33.163" height="0.512"/>
		<rect x="24.956" y="122.509" style="fill:#FFFFFF;" width="33.163" height="0.154"/>
		<rect x="24.956" y="118.989" style="fill:#FFFFFF;" width="33.163" height="0.152"/>
		<rect x="24.956" y="115.468" style="fill:#FFFFFF;" width="33.163" height="0.152"/>
		<rect x="24.956" y="113.867" style="fill:#FFFFFF;" width="33.163" height="0.151"/>
		<rect x="24.956" y="121.602" style="fill:#FFFFFF;" width="33.163" height="0.303"/>
		<rect x="24.956" y="119.865" style="fill:#FFFFFF;" width="33.163" height="0.512"/>
		<rect x="24.956" y="118.08" style="fill:#FFFFFF;" width="33.163" height="0.303"/>
		<rect x="24.956" y="112.062" style="fill:#FFFFFF;" width="33.163" height="0.303"/>
		<rect x="24.956" y="116.353" style="fill:#FFFFFF;" width="33.163" height="0.302"/>
	</g>
</g>
<g>
	<path style="fill:#2C5871;" d="M26.874,97.068h1.281c0.424,0,0.768,0.346,0.768,0.769v8.195c0,0.423-0.344,0.768-0.768,0.768
		h-1.281v1.537h81.435c1.273,0,2.306-1.032,2.306-2.305v-8.195c0-1.272-1.032-2.304-2.306-2.304H26.874V97.068z"/>
	<path style="fill:#0E303F;" d="M26.874,97.068h1.281c0.424,0,0.768,0.346,0.768,0.769v8.195c0,0.423-0.344,0.768-0.768,0.768
		h-1.281v1.537h42.254V95.532H26.874V97.068z"/>
	<path style="fill:#FFFFFF;" d="M28.923,97.836v8.195c0,0.423-0.344,0.768-0.768,0.768h80.153c0.424,0,0.768-0.345,0.768-0.768
		v-8.195c0-0.423-0.343-0.769-0.768-0.769H28.155C28.579,97.068,28.923,97.414,28.923,97.836z"/>
	<path style="fill:#D1ECFB;" d="M28.923,97.836v8.195c0,0.423-0.344,0.768-0.768,0.768h42.509c0.424,0,0.768-0.345,0.768-0.768
		v-8.195c0-0.423-0.344-0.769-0.768-0.769H28.155C28.579,97.068,28.923,97.414,28.923,97.836z"/>
</g>
<g>
	<path style="fill:#1695A4;" d="M31.709,93.915c0.408,0.002,0.817,0.003,1.226,0.005c0.405,0.002,0.744-0.341,0.752-0.764
		c0.052-2.731,0.052-5.482,0-8.212c-0.008-0.423-0.347-0.765-0.752-0.764c-0.409,0.002-0.817,0.002-1.226,0.004
		c0-0.512,0-1.025,0-1.536c16.409,0,32.817,0,49.225,0c1.179,0.001,3.013,0.833,3.661,2.087c1.388,2.675,1.388,5.953,0,8.628
		c-0.648,1.255-2.482,2.087-3.661,2.088c-16.408,0-32.816,0-49.225,0C31.709,94.94,31.709,94.428,31.709,93.915z"/>
	<path style="fill:#FFFFFF;" d="M33.686,93.156c0.052-2.731,0.052-5.482,0-8.212c-0.008-0.423-0.347-0.765-0.752-0.764
		c16.342-0.058,32.685-0.116,49.028-0.172c0.404-0.002,0.941,0.318,1.15,0.735c1.349,2.676,1.349,5.938,0,8.616
		c-0.209,0.415-0.746,0.735-1.15,0.734c-16.342-0.058-32.685-0.115-49.028-0.172C33.34,93.922,33.678,93.579,33.686,93.156z"/>
	<polygon style="fill:#FD6120;" points="74.582,99.141 77.943,97.052 81.303,99.141 81.303,91.204 77.943,91.204 74.582,91.204 	"/>
</g>
</svg>
