<?xml version="1.0" encoding="iso-8859-1"?>
<!-- Generator: Adobe Illustrator 18.0.0, SVG Export Plug-In . SVG Version: 6.00 Build 0)  -->
<!DOCTYPE svg PUBLIC "-//W3C//DTD SVG 1.1//EN" "http://www.w3.org/Graphics/SVG/1.1/DTD/svg11.dtd">
<svg version="1.1" id="&#x56FE;&#x5C42;_1" xmlns="http://www.w3.org/2000/svg" xmlns:xlink="http://www.w3.org/1999/xlink" x="0px"
	 y="0px" viewBox="0 0 1024 1024" style="enable-background:new 0 0 1024 1024;" xml:space="preserve">
<g>
	<g transform="scale(0.1953125, 0.1953125)">
		<path style="fill:#b5b5b5;" d="M4874.847,4889.241h-294.207c0-533.298-235.455-1043.497-645.996-1399.783
			c-51.278-44.498-105.517-86.758-161.195-125.609c-122.063-85.209-275.925-19.855-516.863,93.824
			c-184.002,86.819-392.552,185.219-617.627,185.219c-225.302,0-434.219-97.672-618.542-183.841
			c-242.516-113.383-397.4-178.475-520.363-92.119c-51.217,35.938-101.157,74.754-148.481,115.389
			c-415.827,356.754-654.285,869.538-654.285,1406.915H403.082c0-317.537,68.874-623.647,204.722-909.832
			c131.04-276.071,316.812-518.422,552.157-720.333c54.506-46.807,112.075-91.541,171.047-132.931
			c124.497-87.437,265.611-113.287,431.352-79.018c128.45,26.564,257.68,86.979,382.659,145.408
			c164.212,76.77,334.017,156.156,493.945,156.156c159.153,0,328.405-79.858,492.079-157.086
			c124.291-58.645,252.811-119.287,380.648-146.233c165.148-34.802,305.839-9.55,430.14,77.223
			c64.097,44.724,126.569,93.397,185.642,144.659c232.563,201.831,416.043,443.346,545.353,717.854
			C4806.873,4269.688,4874.847,4573.887,4874.847,4889.241z M2639.1,2973.973c-370.876,0-719.855-138.217-982.659-389.197
			c-264.474-252.58-410.129-588.875-410.129-946.937c0-358.057,145.65-694.347,410.129-946.927
			c262.799-250.981,611.783-389.202,982.659-389.202s719.86,138.222,982.659,389.202c264.474,252.58,410.124,588.87,410.124,946.927
			c0,358.062-145.65,694.357-410.124,946.937C3358.966,2835.751,3009.981,2973.973,2639.1,2973.973z M2639.1,567.853
			c-621.228,0-1126.639,479.989-1126.639,1069.981S2017.868,2707.824,2639.1,2707.824S3765.74,2227.825,3765.74,1637.833
			C3765.74,1047.847,3260.333,567.853,2639.1,567.853z"/>
	</g>
</g>
</svg>
