<svg id="图层_1" data-name="图层 1" xmlns="http://www.w3.org/2000/svg" viewBox="0 0 1012.98 1000.88"><defs><style>.cls-1,.cls-2{fill:#00b9ff;}.cls-1{opacity:0.2;}.cls-3{fill:#294966;}.cls-4{fill:none;stroke:#294966;stroke-linecap:round;stroke-miterlimit:10;stroke-width:38px;}</style></defs><title>画板 29 副本 11</title><polygon class="cls-1" points="152.41 211.43 862.12 211.43 895.11 245.58 895.11 566.29 850.12 587.56 814.12 567.16 814.12 287.58 730.12 287.58 730.12 746.56 704.62 809.77 285.43 809.77 230.65 766.05 230.65 293.58 152.41 211.43"/><rect class="cls-2" x="251.47" y="478.32" width="466.38" height="320.89" rx="42.18" ry="42.18"/><path class="cls-3" d="M894.36,211.41a57.71,57.71,0,0,0-40.86-17H108.34l107.5,140.77V751.81a81.37,81.37,0,0,0,81.07,81.07H672.44a81.33,81.33,0,0,0,81-81.07V310.13h42.16V546.75a57.74,57.74,0,0,0,17,40.78l.08.07a57.51,57.51,0,0,0,40.78,17h0a57.57,57.57,0,0,0,40.78-17l.08-.07a57.64,57.64,0,0,0,17-40.78V252.27A57.77,57.77,0,0,0,894.36,211.41ZM875.68,546.75A22.15,22.15,0,0,1,853.53,569h0a22.2,22.2,0,0,1-22.2-22.22V274.49H717.85V763.2h-.46a42.34,42.34,0,0,1-41.72,36h-382a42.34,42.34,0,0,1-41.72-36h-.41v-4.31c0-.62,0-1.25,0-1.87V520.5c0-.63,0-1.25,0-1.87V323.31l-71.19-93.26H853.5a22.29,22.29,0,0,1,22.17,22.22Z"/><rect class="cls-2" x="251.47" y="459.13" width="466.38" height="216.07"/><line class="cls-4" x1="383.46" y1="359.29" x2="585.87" y2="359.29"/><line class="cls-4" x1="383.46" y1="509.89" x2="585.87" y2="509.89"/><line class="cls-4" x1="383.46" y1="660.49" x2="585.87" y2="660.49"/></svg>