<svg id="图层_1" data-name="图层 1" xmlns="http://www.w3.org/2000/svg" viewBox="0 0 1012.98 1000.88"><defs><style>.cls-1{fill:#00b9ff;}</style></defs><title>画板 29 副本 14</title><path class="cls-1" d="M300.39,267.22h391v57.92h-391Zm0,150.53h391v57.92h-391Zm0,153.28H474.16V629H300.39Zm0,0"/><path class="cls-1" d="M459.93,826.31H206.27V160.18H785.51V475.67a29,29,0,1,0,57.92,0V160.18a58,58,0,0,0-57.92-57.93H206.27a58,58,0,0,0-57.93,57.93V826.31a58,58,0,0,0,57.93,57.92H459.93a29,29,0,1,0,0-57.92Zm0,0"/><path class="cls-1" d="M873.82,824.13l-77.4-78.86a150.94,150.94,0,0,0,23.73-81.23c0-83.83-68.2-152-152.05-152s-152,68.22-152,152,68.21,152.05,152,152.05a151.07,151.07,0,0,0,88.52-28.67l75.85,77.28a29,29,0,1,0,41.35-40.57Zm-205.72-66a94.13,94.13,0,1,1,94.13-94.13,94.24,94.24,0,0,1-94.13,94.13Zm0,0"/></svg>