<svg id="图层_1" data-name="图层 1" xmlns="http://www.w3.org/2000/svg" viewBox="0 0 1012.98 1000.88"><defs><style>.cls-1{fill:#e83828;opacity:0.4;}.cls-2{fill:#f44f47;}.cls-3{fill:#294966;}.cls-4{fill:none;stroke:#294966;stroke-linecap:round;stroke-miterlimit:10;stroke-width:38px;}</style></defs><title>画板 29 副本 12</title><ellipse class="cls-1" cx="506.49" cy="832.88" rx="355.52" ry="35"/><path class="cls-1" d="M69.35,867.93a4.33,4.33,0,0,1,.29-1.67c2.12-5.68,19.53-7.4,27-8.47,10.08-1.45,19,.5,28.88,1.35,8.1.7,20.11-1.39,27.76,1.29s10.2,9.76,3.23,13.36C146.37,879,123.37,876.53,111,877S69.75,879.88,69.35,867.93Z"/><path class="cls-1" d="M237.2,896.27a8.48,8.48,0,0,1,.29-2.34c2.08-8,19.14-10.4,26.44-11.9,9.88-2,18.63.7,28.29,1.9,7.94,1,19.71-2,27.2,1.81s10,13.7,3.16,18.77c-9.92,7.33-32.46,3.84-44.58,4.45S237.59,913.05,237.2,896.27Z"/><polygon class="cls-2" points="152.41 211.43 862.12 211.43 895.11 245.58 895.11 566.29 850.12 587.56 814.12 567.16 814.12 287.58 730.12 287.58 730.12 746.56 704.62 809.77 285.43 809.77 230.65 766.05 230.65 293.58 152.41 211.43"/><rect class="cls-2" x="251.47" y="478.32" width="466.38" height="320.89" rx="42.18" ry="42.18"/><path class="cls-3" d="M894.36,211.41a57.71,57.71,0,0,0-40.86-17H108.34l107.5,140.77V751.81a81.37,81.37,0,0,0,81.07,81.07H672.44a81.33,81.33,0,0,0,81-81.07V310.13h42.16V546.75a57.74,57.74,0,0,0,17,40.78l.08.07a57.51,57.51,0,0,0,40.78,17h0a57.57,57.57,0,0,0,40.78-17l.08-.07a57.64,57.64,0,0,0,17-40.78V252.27A57.77,57.77,0,0,0,894.36,211.41ZM875.68,546.75A22.15,22.15,0,0,1,853.53,569h0a22.2,22.2,0,0,1-22.2-22.22V274.49H717.85V763.2h-.46a42.34,42.34,0,0,1-41.72,36h-382a42.34,42.34,0,0,1-41.72-36h-.41v-4.31c0-.62,0-1.25,0-1.87V520.5c0-.63,0-1.25,0-1.87V323.31l-71.19-93.26H853.5a22.29,22.29,0,0,1,22.17,22.22Z"/><rect class="cls-2" x="251.47" y="459.13" width="466.38" height="216.07"/><line class="cls-4" x1="383.46" y1="359.29" x2="585.87" y2="359.29"/><line class="cls-4" x1="383.46" y1="509.89" x2="585.87" y2="509.89"/><line class="cls-4" x1="383.46" y1="660.49" x2="585.87" y2="660.49"/><path class="cls-2" d="M111.27,193.44c-9.55,15.52,10,36.06,14.87,49.77,7.33,20.49,14.52,57.8-8.22,72-16.77,10.46-37.6-4.42-41.28-21.72C69.47,259.82,94.41,220.85,111.27,193.44Z"/><path class="cls-2" d="M96.75,458.13c10.46,17-10.92,39.52-16.3,54.55-8,22.45-15.91,63.34,9,78.9,18.37,11.47,41.2-4.85,45.24-23.8C142.56,530.86,115.22,488.16,96.75,458.13Z"/></svg>