<svg id="图层_1" data-name="图层 1" xmlns="http://www.w3.org/2000/svg" viewBox="0 0 1024 574.36"><defs><style>.cls-1{fill:#f44336;}.cls-2{fill:#fff;}</style></defs><title>画板 29 副本 8</title><path class="cls-1" d="M815.16,265.4H751V201.28a21.38,21.38,0,0,0-42.75,0V265.4H644.16a21.37,21.37,0,0,0,0,42.75h64.12v64.12a21.38,21.38,0,0,0,42.75,0V308.12h64.12a21.36,21.36,0,1,0,0-42.72Z"/><path class="cls-1" d="M737,63.23H288.33C165.4,63.23,64.82,163.81,64.82,286.75h0c0,122.93,100.58,223.51,223.51,223.51H737c122.93,0,223.51-100.58,223.51-223.51h0C960.47,163.81,859.89,63.23,737,63.23Zm-7.3,394.51a171,171,0,1,1,171-171A171,171,0,0,1,729.66,457.75Z"/><path class="cls-2" d="M211.63,288.45q11.6,38.17,32.7,63.46,18.52-35.6,23.36-80.21H197.77V247.85l62.5-72.48H188.43V151.53H291.84V176L230,247.85h63.14v21.58Q287,326.62,263,370.27q36.24,29.16,92.62,31.25,67.65,2.9,150.77-1.61-5.48,13.53-10.63,26.74-89.88.32-133.69-.64-68.62-.32-112.11-34.79a226.5,226.5,0,0,1-46.07,48,131.05,131.05,0,0,0-16.75-20.62,210.41,210.41,0,0,0,44-45.1q-26.58-30-40.75-77Zm114-76.35h25.13V336.45h43.49V167.32q-36.08,2.42-78.93,4.51-2.9-14.5-5.48-24.16,87.95-2.9,177.18-13.21l5.48,24.48q-31.41,3.54-73.13,6.6v68.13H489v23.84H419.41v78.93h75.38v24.16H325.67Z"/></svg>