<?xml version="1.0" standalone="no"?><!DOCTYPE svg PUBLIC "-//W3C//DTD SVG 1.1//EN" "http://www.w3.org/Graphics/SVG/1.1/DTD/svg11.dtd"><svg t="1533611094856" class="icon" style="" viewBox="0 0 1024 1024" version="1.1" xmlns="http://www.w3.org/2000/svg" p-id="2230" xmlns:xlink="http://www.w3.org/1999/xlink" width="64" height="64"><defs><style type="text/css"></style></defs><path d="M512 0C229.216 0 0 229.216 0 512c0 282.768 229.216 512 512 512 282.752 0 512-229.232 512-512C1024 229.216 794.752 0 512 0zM512 992C246.896 992 32 777.088 32 512 32 246.896 246.896 32 512 32c265.056 0 480 214.896 480 480C992 777.088 777.056 992 512 992z" p-id="2231" fill="#1296db"></path><path d="M625.936 446.768l118.336-168.992c5.056-7.248 3.28-17.216-3.936-22.32-7.248-5.056-17.216-3.296-22.304 3.952l-118.336 168.992c-5.04 7.248-3.296 17.216 3.952 22.304C610.912 455.76 620.88 454 625.936 446.768z" p-id="2232" fill="#1296db"></path><path d="M736 403.424c-8.848 0-16 7.168-16 16l0 272c0 4.096-1.568 8.192-4.688 11.312S708.096 707.424 704 707.424L320 707.424c-4.096 0-8.192-1.568-11.312-4.688S304 695.52 304 691.424l0-352c0-4.096 1.568-8.192 4.688-11.312s7.216-4.688 11.312-4.688l256 0c8.848 0 16-7.168 16-16s-7.152-16-16-16L304 291.424c-8.192 0-16.384 3.12-22.624 9.376C275.12 307.04 272 315.232 272 323.424l0 384c0 8.192 3.12 16.368 9.376 22.624 6.24 6.256 14.432 9.376 22.624 9.376l416 0c8.192 0 16.368-3.12 22.624-9.376S752 715.616 752 707.424l0-288C752 410.592 744.848 403.424 736 403.424z" p-id="2233" fill="#1296db"></path><path d="M352 474.432l176 0c8.848 0 16-7.168 16-16s-7.152-16-16-16L352 442.432c-8.832 0-16 7.168-16 16S343.168 474.432 352 474.432z" p-id="2234" fill="#1296db"></path><path d="M352 588.416l304 0c8.848 0 16-7.152 16-16s-7.152-16-16-16L352 556.416c-8.832 0-16 7.152-16 16S343.168 588.416 352 588.416z" p-id="2235" fill="#1296db"></path></svg>