<?xml version="1.0" standalone="no"?><!DOCTYPE svg PUBLIC "-//W3C//DTD SVG 1.1//EN" "http://www.w3.org/Graphics/SVG/1.1/DTD/svg11.dtd"><svg t="1533192416846" class="icon" style="" viewBox="0 0 1024 1024" version="1.1" xmlns="http://www.w3.org/2000/svg" p-id="2146" xmlns:xlink="http://www.w3.org/1999/xlink" width="64" height="64"><defs><style type="text/css"></style></defs><path d="M748.49888 27.648c95.232 56.704 127.68 180.352 70.912 275.584l-256.32 432.64a133.952 133.952 0 1 1-231.04-135.744l204.672-346.56a33.408 33.408 0 0 1 57.728 33.472L389.77888 633.536c-19.2 31.36-8.064 72.96 23.296 92.16 31.424 19.328 72.96 8.128 92.224-23.232l256.384-432.64a133.952 133.952 0 1 0-231.04-135.808l-307.008 519.808c-56.768 95.232-24.32 218.88 70.912 275.584 95.232 56.768 218.88 24.32 275.584-70.912l256.384-432.64a33.408 33.408 0 0 1 57.728 33.408l-256.32 432.64a267.904 267.904 0 0 1-367.808 94.272A267.904 267.904 0 0 1 165.77888 618.368L472.97888 98.56C528.59488 3.328 652.17888-28.16 748.49888 27.648z" fill="#1296db" p-id="2147"></path></svg>