<?xml version="1.0" standalone="no"?><!DOCTYPE svg PUBLIC "-//W3C//DTD SVG 1.1//EN" "http://www.w3.org/Graphics/SVG/1.1/DTD/svg11.dtd"><svg t="1534332225154" class="icon" style="" viewBox="0 0 1122 1024" version="1.1" xmlns="http://www.w3.org/2000/svg" p-id="2852" xmlns:xlink="http://www.w3.org/1999/xlink" width="140.25" height="128"><defs><style type="text/css"></style></defs><path d="M564.965517 572.027586c-3.531034 0-7.062069-1.765517-10.593103-3.531034L278.951724 384.882759c-5.296552-3.531034-7.062069-8.827586-7.062069-14.124138 0-5.296552 3.531034-12.358621 8.827586-14.124138l275.42069-173.02069c5.296552-3.531034 12.358621-3.531034 19.42069 0l286.013793 178.317241c5.296552 3.531034 8.827586 8.827586 8.827586 14.124138s-5.296552 12.358621-10.593103 14.124138L573.793103 570.262069c-3.531034 1.765517-7.062069 1.765517-8.827586 1.765517zM321.324138 370.758621L564.965517 533.186207l252.468966-157.131035-252.468966-158.896551L321.324138 370.758621z" fill="#1296db" p-id="2853"></path><path d="M570.262069 707.972414c-3.531034 0-7.062069 0-8.827586-1.765517l-280.717242-165.958621c-8.827586-5.296552-10.593103-15.889655-7.062069-24.717242 5.296552-8.827586 15.889655-10.593103 24.717242-7.062068l271.889655 160.662068 271.889655-171.255172c8.827586-5.296552 19.42069-3.531034 24.717242 5.296552 5.296552 8.827586 3.531034 19.42069-5.296552 24.717241l-280.717242 176.551724c-5.296552 1.765517-8.827586 3.531034-10.593103 3.531035z" fill="#1296db" p-id="2854"></path><path d="M570.262069 831.558621c-3.531034 0-7.062069 0-8.827586-1.765518l-280.717242-165.95862c-8.827586-5.296552-10.593103-15.889655-7.062069-24.717242 5.296552-8.827586 15.889655-10.593103 24.717242-7.062069l271.889655 160.662069 271.889655-171.255172c8.827586-5.296552 19.42069-3.531034 24.717242 5.296552 5.296552 8.827586 3.531034 19.42069-5.296552 24.717241l-280.717242 176.551724c-5.296552 1.765517-8.827586 3.531034-10.593103 3.531035z" fill="#1296db" p-id="2855"></path></svg>